<?xml version="1.0" encoding="UTF-8" standalone="no"?>
<svg
   xmlns:dc="http://purl.org/dc/elements/1.1/"
   xmlns:cc="http://creativecommons.org/ns#"
   xmlns:rdf="http://www.w3.org/1999/02/22-rdf-syntax-ns#"
   xmlns:svg="http://www.w3.org/2000/svg"
   xmlns="http://www.w3.org/2000/svg"
   xmlns:sodipodi="http://sodipodi.sourceforge.net/DTD/sodipodi-0.dtd"
   xmlns:inkscape="http://www.inkscape.org/namespaces/inkscape"
   id="svg1008"
   version="1.1"
   viewBox="0 0 123.12369 47.423861"
   height="47.423862mm"
   width="123.12369mm"
   sodipodi:docname="Mister_Rogers'_Neighborhood_Logo_1971.svg"
   inkscape:version="0.92.1 r15371">
  <sodipodi:namedview
     pagecolor="#ffffff"
     bordercolor="#666666"
     borderopacity="1"
     objecttolerance="10"
     gridtolerance="10"
     guidetolerance="10"
     inkscape:pageopacity="0"
     inkscape:pageshadow="2"
     inkscape:window-width="993"
     inkscape:window-height="739"
     id="namedview36"
     showgrid="false"
     inkscape:zoom="1.3839065"
     inkscape:cx="232.67469"
     inkscape:cy="89.619898"
     inkscape:window-x="0"
     inkscape:window-y="0"
     inkscape:window-maximized="1"
     inkscape:current-layer="layer1" />
  <defs
     id="defs1002" />
  <metadata
     id="metadata1005">
    <rdf:RDF>
      <cc:Work
         rdf:about="">
        <dc:format>image/svg+xml</dc:format>
        <dc:type
           rdf:resource="http://purl.org/dc/dcmitype/StillImage" />
        <dc:title />
      </cc:Work>
    </rdf:RDF>
  </metadata>
  <g
     transform="translate(-53.413731,-100.80645)"
     id="layer1">
    <path
       id="path845"
       style="fill:#ed1427;fill-opacity:1;fill-rule:nonzero;stroke:none;stroke-width:1.05070472"
       d="m 154.72173,126.31011 c 1.47309,0 3.82877,-0.19657 4.94147,0.65459 1.1127,0.85003 1.47729,1.554 1.70634,2.40402 0.22276,0.82689 0.25007,1.11794 0.1681,2.09931 -0.12399,1.49306 -1.27345,2.62886 -1.47098,2.82535 -1.06332,1.05175 -3.80671,0.92252 -5.2136,0.91516 -0.49068,-0.002 -0.68716,-1.83137 -0.32782,-1.9953 0.36039,-0.16381 -0.0212,-0.20074 0.27425,-0.16798 0.40032,0.0453 1.57606,1.451 3.41269,-0.64935 0.96244,-1.10009 0.46231,-2.76125 0.18597,-3.1521 -0.40348,-0.56949 -1.12741,-1.03811 -1.69059,-1.21148 -0.53796,-0.1659 -0.46441,0.0149 -1.2661,-0.0536 -0.78487,-0.0652 -0.71973,-1.66852 -0.71973,-1.66852" />
    <path
       id="path847"
       style="fill:#ed1427;fill-opacity:1;fill-rule:nonzero;stroke:none;stroke-width:1.05070472"
       d="m 175.87137,111.68009 c 0.50434,0.48545 1.24193,2.05729 -0.0778,3.36438 -0.17233,0.17006 -0.62096,0.66614 -0.88259,0.66614 0.18281,-0.12718 0.28685,-0.70081 0.17968,-0.94144 -0.19964,-0.44866 -0.42553,-0.19121 -0.91096,-0.34462 -1.24193,-0.39297 -1.40374,-1.71266 -1.01813,-2.32102 0.79118,-1.24824 1.91228,-1.1915 2.70977,-0.42344" />
    <path
       id="path849"
       style="fill:#ed1427;fill-opacity:1;fill-rule:nonzero;stroke:none;stroke-width:1.05070472"
       d="m 95.72572,101.21614 c -0.294204,0 -0.490679,0.16381 -0.490679,0.39296 0,0.22904 -0.06514,0.78486 0,0.98135 0.06514,0.19657 0.622019,0.0325 0.622019,0.42555 0,0.39189 0,5.19994 0,5.46365 0,0.2615 -0.486479,0.14296 -0.589447,0.55582 -0.110319,0.44447 -0.110319,0.59157 0,0.81852 0.07249,0.14713 0.327821,0.2615 0.523253,0.2615 0.196483,0 2.847407,0 3.076462,0 0.229037,0 0.359341,0 0.359341,-0.2615 0,-0.26269 0,-0.32783 0,-0.52431 0,-0.19538 -0.229067,-0.45706 -0.458107,-0.55583 -0.229067,-0.0977 -0.26162,-0.2615 -0.26162,-0.52324 0,-0.2615 -0.06514,-5.03813 0.06514,-5.23461 0.131346,-0.19657 0.229067,-0.29427 0.392964,-0.29427 0.1639,0 0.26162,-0.16381 0.26162,-0.36038 0,-0.19657 -0.03258,-0.71972 -0.03258,-0.85107 0,-0.13015 -0.09772,-0.29426 -0.32677,-0.29426 -0.229067,0 -3.141608,0 -3.141608,0" />
    <path
       id="path851"
       style="fill:#ed1427;fill-opacity:1;fill-rule:nonzero;stroke:none;stroke-width:1.05070472"
       d="m 106.68772,101.3149 c 0,0 -0.58524,-0.71028 -1.30917,-0.13135 -0.1639,0.13135 -0.39297,0.22904 -0.62202,0.13135 -0.22907,-0.0989 -1.43947,-0.49069 -2.32311,-0.29516 -0.88364,0.19658 -2.06148,0.49069 -2.42082,1.60338 -0.360396,1.11269 -0.163903,1.66852 0.2942,2.22538 0.45811,0.55583 1.4069,1.14424 2.45445,1.47204 1.0465,0.32678 2.26742,0.5054 2.51959,1.17785 0.0977,0.26151 0.1303,0.26151 0.0977,0.55583 -0.0357,0.32047 -0.3604,0.58945 -0.81745,0.55582 -0.45811,-0.0325 -1.17889,-0.35934 -1.50566,-0.68717 -0.32677,-0.32676 -0.52325,-0.65354 -0.85107,-0.98134 -0.32677,-0.32679 -0.85002,-0.39193 -1.17784,0.0661 -0.32677,0.4581 -0.71974,1.50461 -1.145272,2.1592 -0.259535,0.39928 -0.26162,0.65459 0.03258,0.88258 0.295252,0.22904 0.490682,0.29516 0.753352,0.19657 0.26163,-0.0977 0.8826,-0.88258 1.47204,-0.88258 0.58945,0 0.91622,0.2615 1.47204,0.52324 0.55687,0.26151 0.98241,0.26151 1.47309,0.26151 0.49068,0 1.37432,0.13045 2.38825,-0.81849 1.01498,-0.94879 0.88364,-1.17679 0.91621,-2.02786 0.0326,-0.85107 -0.0651,-1.47203 -1.04755,-2.1592 -0.98136,-0.68717 -2.02786,-0.88366 -2.81378,-1.04756 -0.78488,-0.16291 -1.53719,-0.45706 -1.53719,-0.88258 0,-0.42555 0.32677,-0.58945 0.75231,-0.55687 0.42553,0.0325 0.78277,-0.0298 1.47203,0.36039 0.75336,0.42552 0.55688,0.35934 0.98242,0.58838 0.47491,0.25643 0.7523,0.32783 1.01392,0.19657 0.26162,-0.13016 0.0977,-1.21041 -0.0988,-1.60338 -0.19544,-0.39189 -0.42448,-0.88258 -0.42448,-0.88258" />
    <path
       id="path853"
       style="fill:#ed1427;fill-opacity:1;fill-rule:nonzero;stroke:none;stroke-width:1.05070472"
       d="m 113.52571,101.21614 h -3.53352 c 0,0 -0.32677,-0.0652 -0.49068,-0.19658 -0.1639,-0.13015 -0.49068,-0.0325 -0.55688,0.22904 -0.0651,0.2615 -0.45705,0.91621 -0.55582,1.08011 -0.0977,0.16381 -0.88364,1.21041 -0.7523,1.60338 0.1303,0.39192 0.2942,0.5884 0.71973,0.42555 0.42554,-0.16381 0.61256,-0.82588 1.14527,-1.14528 0.49068,-0.29515 0.58419,-0.21444 0.75231,-0.16381 0.19859,0.0599 0.39296,0.19657 0.42553,0.62204 0.0274,0.35829 0,3.66381 0,3.92543 0,0.26151 -0.13135,0.49066 -0.2942,0.58946 -0.1639,0.0977 -0.94879,0.49065 -1.08013,0.71972 -0.13027,0.22904 -0.13135,0.49069 -0.13135,0.49069 0,0 0,0.28056 0.13135,0.42552 0.0662,0.0724 0.13135,0.22784 0.45811,0.22784 0.32677,0 4.94041,0.0337 5.16947,0.0337 0.22906,0 0.29524,-0.22904 0.29524,-0.42552 0,-0.19657 0.0326,-0.29427 0,-0.42555 -0.0326,-0.13135 -0.42553,-0.29427 -0.78593,-0.49069 -0.35934,-0.19657 -1.01393,-0.19657 -1.01393,-0.98134 0,-0.78487 0,-3.92649 0,-4.18811 0,-0.2615 0.22907,-0.9162 0.78488,-0.42555 0.55687,0.49173 0.62202,0.68717 0.85107,1.04756 0.22907,0.35934 0.7523,0.42555 0.98136,0.13045 0.22904,-0.29426 0.22904,-0.81744 0.0326,-1.11165 -0.19544,-0.29516 -1.01393,-1.4731 -1.14527,-1.73472 -0.13027,-0.2615 -0.16285,-0.52324 -0.4581,-0.58838 -0.29421,-0.0652 -0.49068,0.0977 -0.5884,0.22904 -0.0988,0.13015 -0.36039,0.0977 -0.36039,0.0977" />
    <path
       id="path855"
       style="fill:#ed1427;fill-opacity:1;fill-rule:nonzero;stroke:none;stroke-width:1.05070472"
       d="m 122.00069,100.80741 c -0.55582,0 -0.70922,0.19241 -0.93303,0.31101 -0.12187,0.0652 -0.22903,0.0977 -0.35934,0.0977 -0.13134,0 -3.12479,0 -3.45156,0 -0.32782,0 -0.5243,-0.13016 -0.78593,-0.13016 -0.26162,0 -0.85107,0.2615 -0.52325,0.71973 0.32677,0.4581 0.62202,0.81744 0.91622,1.07906 0.2942,0.2615 0.22904,0.45811 0.22904,0.65459 0,0.19657 0,4.12192 0,4.54744 0,0.42555 -0.0651,0.52327 -0.45811,0.78594 -0.39297,0.2615 -0.46336,0.34462 -0.45811,0.67034 0.005,0.39612 0.29421,0.47389 0.49068,0.47389 0.19648,0 4.81013,0.0325 5.07175,0.0661 0.26162,0.0325 0.49068,0.22903 0.7523,0.22903 0.26163,0 0.62202,-0.32782 0.78593,-0.65458 0.16286,-0.32783 0.81745,-2.09407 0.75231,-2.48704 -0.0651,-0.39189 -0.13135,-0.81744 -0.71974,-0.62096 -0.58944,0.19658 -0.98135,1.14528 -1.2766,1.43948 -0.29421,0.29427 -0.22907,0.32676 -0.62097,0.32676 -0.39296,0 -1.63594,0.0652 -1.63594,-0.19657 0,-0.2615 -0.26267,-0.91621 -0.13135,-1.243 0.13135,-0.32676 0.42554,-0.16381 0.55582,-0.0977 0.13135,0.0652 0.16918,0.44023 0.42554,0.49066 0.25531,0.0494 0.71973,0.13045 0.91621,-0.13135 0.19649,-0.2618 0.19649,-0.42555 0.19649,-0.65459 0,-0.22903 -0.0326,-1.9953 -0.0326,-2.25692 0,-0.2615 -0.0631,-0.56318 -0.311,-0.65459 -0.49699,-0.18168 -0.83426,0 -0.99817,0.0661 -0.1639,0.0652 -0.13028,0.52327 -0.45811,0.48965 -0.32677,-0.0325 -0.35934,-0.42448 -0.32677,-0.62096 0.0326,-0.19658 -0.0988,-0.42555 0.1303,-0.58945 0.22904,-0.16292 0.45811,-0.32679 0.85107,-0.32679 0.39297,0 0.91622,-0.0325 1.14527,0.0977 0.22907,0.13135 0.49068,0.39297 0.71973,0.75335 0.22907,0.35934 0.3604,0.52327 0.62202,0.58841 0.26162,0.0652 0.39296,0.0977 0.5884,-0.19657 0.19648,-0.29427 0.1597,-0.37826 0.0662,-0.81745 -0.0956,-0.4455 -0.71132,-1.14843 -0.85107,-1.50566 -0.2942,-0.75231 -0.88364,-0.70292 -0.88364,-0.70292" />
    <path
       id="path857"
       style="fill:#ed1427;fill-opacity:1;fill-rule:nonzero;stroke:none;stroke-width:1.05070472"
       d="m 127.49903,101.6091 c 0,0 -1.79986,4.31841 -2.45445,5.92176 -0.65459,1.60338 -2.3231,5.69272 -2.84636,7.26247 -0.52325,1.57082 -2.25796,5.52986 -2.91255,7.26354 -0.65354,1.73365 -2.9115,7.03445 -3.69743,8.96461 -0.78488,1.93014 -3.04074,7.40538 -4.09039,9.09489 -0.9677,1.55715 -2.48807,3.55034 -4.41716,4.71137 -1.80827,1.08854 -6.2538,2.25585 -8.99929,2.35569 -2.628863,0.0965 -3.808803,0.0852 -5.660146,-0.78489 -1.781995,-0.8374 -2.454446,-2.19283 -2.454446,-2.51959 0,-0.32676 -0.02412,-0.22784 0.131346,-0.52324 0.146059,-0.27848 0.309957,-0.80276 0,-1.34176 -0.284733,-0.49277 -0.624119,-0.73235 -1.374324,-0.62096 -0.542162,0.0789 -0.916214,0.58838 -1.014979,1.04648 -0.09772,0.45811 0.140787,1.24931 0.589444,1.96272 0.505389,0.80273 1.733665,1.93017 2.977699,2.48704 1.242983,0.55582 3.389573,1.36171 6.707698,1.34068 3.338088,-0.0208 7.769958,-0.35198 10.995618,-2.29052 1.93015,-1.15999 3.95591,-3.60812 4.97194,-5.23357 1.14527,-1.83242 2.20333,-4.75864 3.37066,-7.78678 1.12635,-2.92411 3.17418,-7.52514 4.15554,-9.97854 0.98135,-2.45445 3.27189,-8.24486 3.53352,-8.96462 0.26162,-0.71972 2.6835,-6.64148 3.20675,-7.94961 0.52325,-1.30917 1.93119,-4.28689 1.93119,-4.28689 l -2.64988,-0.13016" />
    <path
       id="path859"
       style="fill:#ed1427;fill-opacity:1;fill-rule:nonzero;stroke:none;stroke-width:1.05070472"
       d="m 124.38999,102.72179 c 0,0 -0.0988,1.07907 0.81745,1.07907 0.91622,0 2.22434,-0.49173 3.2719,-0.55582 0.99501,-0.0611 2.19282,-0.45811 2.42187,0.19657 0.22907,0.65354 -1.70214,1.5372 -2.48702,1.60233 -0.78487,0.0661 -1.37432,0.78594 -1.14526,1.24404 0.22903,0.45811 0.7523,1.7011 2.02891,2.48596 1.27555,0.78489 2.69715,1.79355 4.15553,1.14528 1.17784,-0.52324 0.23327,-1.38903 -0.0167,-1.50462 -0.18808,-0.0882 -1.22617,-0.2615 -1.55399,-0.4581 -0.32677,-0.19658 -1.34175,-0.85107 -1.40689,-1.27662 -0.0651,-0.42552 0.0977,-0.29427 0.26162,-0.32676 0.1639,-0.0325 1.63595,-0.39297 2.16025,-1.14528 0.52325,-0.7523 0.91516,-1.04648 0.85002,-2.19175 -0.0651,-1.14528 -1.73366,-1.79986 -2.25796,-1.93014 -0.52325,-0.13134 -2.25692,-0.22904 -2.87893,-0.22904 -0.62202,0 -2.58474,0.42555 -3.07542,0.62097 -0.49173,0.19657 -1.17889,0.32783 -1.14526,1.24403" />
    <path
       id="path861"
       style="fill:#ed1427;fill-opacity:1;fill-rule:nonzero;stroke:none;stroke-width:1.05070472"
       d="m 119.90664,115.54671 c 0,0 -0.0977,1.07906 0.8185,1.07906 0.91621,0 2.12662,-0.4581 3.04284,-0.85002 0.91621,-0.39297 2.1592,-0.52429 2.38825,0.13015 0.22906,0.65459 -1.76624,1.66852 -2.55216,1.73365 -0.78488,0.0661 -1.21041,0.49173 -0.98136,0.94879 0.22906,0.45811 1.22302,1.99212 1.88181,2.55217 1.14107,0.97084 2.51749,2.08773 3.97482,1.43945 1.17784,-0.52324 0.5243,-1.43945 0.32781,-1.60233 -0.1597,-0.13343 -1.43946,-0.39294 -1.76728,-0.58942 -0.32677,-0.19658 -1.50461,-0.75231 -1.5708,-1.17786 -0.0651,-0.42552 0.0988,-0.29426 0.26162,-0.32676 0.1639,-0.0325 1.91123,-0.68925 2.51959,-1.37431 0.57368,-0.64515 0.91621,-1.04651 0.85107,-2.19179 -0.0651,-1.14527 -1.73366,-1.79986 -2.25797,-1.93013 -0.52325,-0.13135 -2.25796,-0.22904 -2.87893,-0.22904 -0.62202,0 -1.60337,0.49069 -2.09405,0.68613 -0.49173,0.19657 -1.99634,0.7859 -1.96377,1.70214" />
    <path
       id="path863"
       style="fill:#ed1427;fill-opacity:1;fill-rule:nonzero;stroke:none;stroke-width:1.05070472"
       d="m 114.44192,128.30541 c 0,0 -0.19648,0.94879 0.71974,0.94879 0.91621,0 2.8474,-0.7523 3.76362,-1.14423 0.91621,-0.39296 2.12663,-0.32783 2.35568,0.32676 0.22906,0.65459 -2.02891,1.93017 -2.81379,1.9953 -0.78592,0.0661 -1.53823,1.17783 -1.30918,1.63594 0.22907,0.45813 1.57081,1.79986 2.29054,2.25796 1.264,0.80381 2.43553,1.43317 3.37066,1.04651 1.19045,-0.49173 0.75231,-1.40689 0.55582,-1.56975 -0.15866,-0.13254 -1.44261,-0.42028 -1.79985,-0.55687 -0.36565,-0.13968 -1.36067,-0.69661 -1.47204,-1.11165 -0.0725,-0.27222 0.53271,-0.50224 0.7523,-0.58945 0.1555,-0.062 1.83243,-0.78486 2.35568,-1.53716 0.5243,-0.75336 0.78593,-0.9488 0.72079,-2.09407 -0.0662,-1.14528 -1.70214,-1.5708 -2.2254,-1.7011 -0.52325,-0.13135 -2.06148,-0.3278 -2.68349,-0.3278 -0.62097,0 -1.83244,0.52324 -2.32311,0.71972 -0.49068,0.19658 -2.12663,0.81849 -2.25797,1.7011" />
    <path
       id="path865"
       style="fill:#ed1427;fill-opacity:1;fill-rule:nonzero;stroke:none;stroke-width:1.05070472"
       d="m 146.50943,114.56429 c 0,-0.30996 -0.22904,-0.6861 -0.65459,-0.6861 -0.42554,0 -0.73654,0.27729 -0.99817,0.27729 -0.26162,0 -0.31101,0.0494 -0.60521,-0.1796 -0.29524,-0.22903 -1.43946,-0.42552 -2.55216,-0.0325 -1.11269,0.39297 -2.45444,1.56975 -2.81484,3.27189 -0.36564,1.7305 -0.13027,3.17314 0.3604,3.86028 0.84476,1.18205 1.31968,1.45312 1.96376,1.76623 0.61782,0.30156 0.94879,0.32783 1.66852,0.32783 0.71973,0 1.71475,-0.33098 2.04467,-0.62203 0.24375,-0.21444 0.40873,-0.0819 0.50749,-0.0149 0.0977,0.0652 0.21224,0.14713 0.54007,0.14713 0.13027,0 0.37615,-0.19657 0.37615,-0.45811 0,-0.2615 0,-1.83241 0,-2.06148 0,-0.22904 0.0977,-0.35934 0.35934,-0.35934 0.26266,0 0.26266,-0.0661 0.49173,-0.0661 0.31626,0 0.34358,-0.4413 0.34358,-0.70293 0,-0.2615 0.0651,-0.6441 -0.0494,-0.86682 -0.10612,-0.20581 -0.3604,-0.42555 -0.75231,-0.42555 -0.39296,0 -2.97769,0.0325 -3.37066,0.0325 -0.39296,0 -0.78593,0.16381 -0.8185,0.52324 -0.0326,0.36039 -0.1303,1.17783 0.1639,1.37431 0.29421,0.19658 0.45811,0.13135 0.58945,0.0977 0.13027,-0.0325 0.2942,-0.0325 0.49068,-0.0325 0.19648,0 0.32677,0.13135 0.32677,0.39294 0,0.2618 -0.22907,0.49069 -0.52326,0.58841 -0.25953,0.0873 -0.92041,0.37301 -1.79985,-0.58841 -0.69242,-0.75755 -0.65459,-1.37431 -0.65459,-1.79983 0,-0.42451 0.0662,-1.243 0.71973,-1.83141 0.65459,-0.58942 0.8185,-0.71972 1.34175,-0.71972 0.52325,0 0.88365,0.0977 1.34175,0.35934 0.45811,0.2615 0.92567,0.64723 1.30918,0.91621 0.29313,0.2058 0.98136,0.22903 1.0465,-0.29427 0.0662,-0.52327 -0.16286,-0.81851 -0.26162,-1.17785 -0.0977,-0.36039 -0.1303,-0.81849 -0.1303,-1.01497" />
    <path
       id="path867"
       style="fill:#ed1427;fill-opacity:1;fill-rule:nonzero;stroke:none;stroke-width:1.05070472"
       d="m 153.11836,113.33812 c -0.55582,0 -0.55162,0.12093 -0.67035,0.1796 -0.12503,0.0611 -0.1471,0.0652 -0.27845,0.0652 -0.13027,0 -3.46837,0 -3.79514,0 -0.32782,0 -0.5243,-0.13135 -0.78593,-0.13135 -0.26162,0 -0.75231,0.88362 -0.42554,1.34173 0.32782,0.45813 0.5096,0.57789 0.78593,0.81852 0.35199,0.3068 0.26162,0.35934 0.26162,0.55582 0,0.19657 0,4.12297 0,4.54744 0,0.42555 -0.0651,0.32783 -0.45811,0.58945 -0.39296,0.26151 -0.2942,0.42552 -0.32676,0.78487 -0.0336,0.36041 0.16285,0.55582 0.35934,0.55582 0.19648,0 4.38459,0.0337 4.64621,0.0661 0.26162,0.0325 0.64303,0.24363 1.34175,0.19657 0.26162,-0.0179 0.45811,-0.29515 0.62202,-0.62203 0.1639,-0.32676 0.81745,-2.09404 0.7523,-2.487 -0.0651,-0.39193 -0.26162,-0.88262 -0.85107,-0.68613 -0.58839,0.19538 -0.85002,0.85003 -1.14526,1.14423 -0.29421,0.29516 -0.22907,0.49069 -0.62097,0.49069 -0.39297,0 -1.63595,0.0661 -1.63595,-0.19538 0,-0.26151 -0.26266,-0.71973 -0.13135,-1.04756 0.13135,-0.32676 0.42554,-0.16381 0.55688,-0.0977 0.13027,0.0652 0.16285,0.42555 0.42448,0.42555 0.26162,0 0.75336,0.0977 0.94984,-0.16381 0.19544,-0.2615 0.16286,-0.3278 0.16286,-0.55582 0,-0.22904 -0.0326,-1.99632 -0.0326,-2.25797 0,-0.2615 0,-0.60521 -0.26162,-0.63776 -0.26162,-0.0325 -0.88364,-0.0179 -1.04755,0.0494 -0.16286,0.0652 0.002,0.43288 -0.32677,0.42448 -0.29105,-0.006 -0.29105,-0.3835 -0.2942,-0.58838 -0.003,-0.19955 -0.0167,-0.34358 0.21224,-0.50751 0.22906,-0.16381 0.34358,-0.11437 0.73654,-0.11437 0.39191,0 0.72814,-0.009 0.98136,0.0652 0.25006,0.0748 0.52325,0.16381 0.7523,0.52432 0.22904,0.35934 0.30156,0.46861 0.55688,0.55582 0.26793,0.0914 0.4581,0.13135 0.65458,-0.16381 0.19544,-0.29426 0.29421,-0.42451 0.13031,-0.85003 -0.1639,-0.42555 -0.75756,-1.12425 -0.91622,-1.47203 -0.27213,-0.59892 -0.88364,-0.80169 -0.88364,-0.80169" />
    <path
       id="path869"
       style="fill:#ed1427;fill-opacity:1;fill-rule:nonzero;stroke:none;stroke-width:1.05070472"
       d="m 156.06349,114.95726 c 0,0 0.4581,0.0652 1.37432,0.0652 0.91621,0 0.55687,0.75336 1.47308,0.36039 0.91517,-0.39297 1.47204,0.39297 1.7011,1.04651 0.22903,0.65459 -1.03915,1.3512 -1.73472,0.98134 -1.53718,-0.81744 -1.01393,1.88287 -0.7523,2.32314 1.37432,2.30627 -0.0977,-0.0325 1.17784,0.75228 1.2766,0.78593 2.83375,2.55848 4.5485,1.70214 0.70712,-0.35407 0.20592,-1.35329 0,-1.50566 -0.18177,-0.13462 -0.8185,-0.11765 -1.17784,-0.24482 -0.37931,-0.13552 -1.61494,-0.62308 -1.68533,-1.04756 -0.0326,-0.19657 0.21224,-0.4413 0.37615,-0.47389 0.1639,-0.0325 1.14527,-0.4581 1.66852,-1.21041 0.5243,-0.75335 0.36459,-1.886 -0.26162,-2.84634 -0.91621,-1.4069 -1.865,-1.14528 -2.38825,-1.27662 -0.52325,-0.13016 -3.69743,0.0325 -4.31945,0.0325 -0.62202,0 -0.65459,0.36038 -0.65459,0.55687 0,0.52851 0.62202,-0.13135 0.65459,0.78489" />
    <path
       id="path871"
       style="fill:#ed1427;fill-opacity:1;fill-rule:nonzero;stroke:none;stroke-width:1.05070472"
       d="m 155.80186,113.58292 c -0.2942,0 -0.35304,0.24065 -0.42554,0.45813 -0.0977,0.29426 -0.1639,1.14525 -0.0977,1.34173 0.0651,0.19657 0.81745,-0.0325 0.81745,0.35934 0,0.39297 0,4.5464 0,4.81014 0,0.65354 -0.67981,0.50328 -0.78487,0.91516 -0.10717,0.42344 -0.12399,0.60309 0,0.88366 0.0662,0.15011 0.32676,0.3278 0.52325,0.3278 0.19648,0 3.04283,0 3.27189,0 0.22907,0 0.6756,-0.1102 0.75336,-0.36039 0.0756,-0.2481 0.0756,-0.55898 -0.0336,-0.85107 -0.0683,-0.18376 -0.65564,-0.33727 -0.8994,-0.50644 -0.17022,-0.11765 -0.24483,-0.47493 -0.24483,-0.73655 0,-0.26151 0,-4.44868 0.13028,-4.64517 0.13134,-0.19657 0.22906,-0.29515 0.39296,-0.29515 0.16286,0 0.26162,-0.16292 0.26162,-0.35935 0,-0.19657 -0.0326,-0.71972 -0.0326,-0.85107 0,-0.13015 -0.0988,-0.29426 -0.32782,-0.29426 -0.22907,0 -3.30447,-0.19657 -3.30447,-0.19657" />
    <path
       id="path881"
       style="fill:#ed1427;fill-opacity:1;fill-rule:nonzero;stroke:none;stroke-width:1.05070472"
       d="m 172.17919,113.91075 c 0,0 -0.37195,-0.58314 -1.06436,-0.19658 -0.18281,0.10186 -0.63358,0.3499 -0.89941,0.29427 -0.24375,-0.0515 -2.20858,-0.75231 -3.09222,-0.55583 -0.88364,0.19658 -2.29053,0.42555 -2.64987,1.53717 -0.3604,1.11272 -0.19649,1.89758 0.26162,2.45445 0.4581,0.55583 1.66851,0.98138 2.71607,1.30813 1.0465,0.32783 1.7137,0.30681 2.3231,0.68717 0.26163,0.16382 0.24376,0.50645 0.26163,0.80169 0.0199,0.33936 -0.67771,0.36563 -0.98136,0.34359 -0.45811,-0.0325 -0.95509,-0.27103 -1.34175,-0.52327 -0.40873,-0.26686 -0.75231,-0.44655 -1.1127,-0.75335 -0.35303,-0.29841 -0.85107,-0.2615 -1.17784,0.19657 -0.32782,0.45811 -0.57368,1.30498 -0.78593,1.97952 -0.14186,0.45498 -0.0232,0.99609 0.11452,1.09589 0.17969,0.12926 0.4455,0.15875 0.63883,0.0325 0.34358,-0.22487 0.8164,-1.04652 1.47204,-1.04652 0.58944,0 0.9015,0.48858 1.43946,0.75231 0.55163,0.27103 1.30918,0.45811 1.79986,0.45811 0.49068,0 1.42791,-0.2481 2.06148,-1.01393 0.65459,-0.79222 0.62202,-1.17783 0.65459,-2.0289 0.0326,-0.85003 -0.1639,-1.50462 -1.14527,-2.19179 -0.98135,-0.68717 -1.93119,-0.71972 -2.71607,-0.88362 -0.78487,-0.16292 -1.70109,-0.39193 -1.70109,-0.81748 0,-0.42552 0.71973,-0.65458 1.14527,-0.622 0.42553,0.0325 0.80694,-0.0432 1.53718,0.2615 0.78593,0.32783 1.73471,0.98242 2.16025,1.21041 0.47492,0.25644 0.58734,0.24691 0.81745,0.0661 0.30155,-0.23648 0.10507,-0.95719 -0.29421,-1.865 -0.18597,-0.42343 -0.44129,-0.98137 -0.44129,-0.98137" />
    <path
       id="path883"
       style="fill:#ed1427;fill-opacity:1;fill-rule:nonzero;stroke:none;stroke-width:1.05070472"
       d="m 53.875105,126.6369 c -0.294204,0.002 -0.396115,0.18376 -0.441297,0.4749 -0.04938,0.31312 0,0.62412 0.06514,0.94879 0.04518,0.22487 0.114518,0.28056 0.311008,0.35934 0.287889,0.11675 0.851071,0.21325 0.883642,0.63883 0.03258,0.42448 0.09772,3.89286 0.06514,4.25324 -0.03258,0.35934 -0.326769,0.35934 -0.588393,0.45706 -0.26162,0.0989 -0.255336,0.0611 -0.343582,0.40977 -0.09772,0.38457 -0.04938,0.56425 0.01579,0.88261 0.06618,0.32256 0.1639,0.40241 0.442345,0.40977 0.424487,0.0119 3.550331,0.0119 3.877101,0 0.183885,-0.006 0.280533,-0.0524 0.392964,-0.36039 0.08616,-0.23648 0.118718,-0.69557 0.01579,-0.98137 -0.07669,-0.21534 -0.114519,-0.29427 -0.376154,-0.36039 -0.261621,-0.0652 -0.817448,-0.0652 -0.850019,-0.35934 -0.03363,-0.29426 -0.03363,-0.9162 0.06514,-1.11269 0.09772,-0.19657 0.359341,-0.35934 0.523253,-0.16291 0.1639,0.19538 2.487017,2.87892 2.748641,3.10799 0.26162,0.22904 0.45811,0.22904 0.589447,0.22904 0.130274,0 1.242984,0 1.537181,0 0.295247,0 0.524302,-0.21653 0.572632,-0.54007 0.04938,-0.3278 0,-0.21325 0,-0.4749 0,-0.16292 -0.1639,-0.35935 -0.294204,-0.45811 -0.35619,-0.26686 -0.77542,-0.72079 -0.752305,-0.88261 0.03258,-0.22904 -0.01668,-4.0242 -0.01668,-4.38459 0,-0.35934 0.131347,-0.35934 0.392964,-0.4581 0.261621,-0.0977 0.311008,-0.24363 0.392964,-0.4581 0.07357,-0.1933 0.07357,-0.63568 0,-0.85003 -0.07565,-0.21861 -0.1639,-0.36038 -0.556873,-0.36038 -0.392964,0 -2.945125,0.0325 -3.206751,0 -0.261621,-0.0325 -0.458107,0.0989 -0.458107,0.36038 0,0.2615 -0.03258,0.78489 0,1.01393 0.03258,0.22903 -0.07145,0.31731 0.229067,0.39296 0.131346,0.0325 0.294204,0.0325 0.622016,0.0325 0.326769,0 0.326769,0.0325 0.326769,0.2615 0,0.22904 -0.06514,0.91621 -0.06514,1.17783 0,0.2618 -0.26162,0.16381 -0.294204,0.0652 -0.03258,-0.0977 -2.813787,-3.20571 -2.879982,-3.27189 -0.06514,-0.0652 -2.3872,-0.002 -2.945124,0" />
    <path
       id="path885"
       style="fill:#ed1427;fill-opacity:1;fill-rule:nonzero;stroke:none;stroke-width:1.05070472"
       d="m 72.755217,126.57173 c -0.294204,0 -0.553722,0.3625 -0.588396,0.58945 -0.03258,0.21444 -0.06514,0.59049 -0.03258,0.81745 0.02949,0.20491 0.981359,0.13134 0.981359,0.52327 0,0.39296 0,4.67667 0,4.94041 0,0.2615 -0.707125,0.21116 -0.818499,0.622 -0.08089,0.3026 -0.09772,0.66194 0,1.14423 0.03258,0.16084 0.327818,0.2627 0.524301,0.2627 0.196484,0 3.140557,0 3.369609,0 0.229067,0 0.446551,-0.0902 0.556873,-0.32783 0.10192,-0.21951 0.118718,-0.59678 0,-0.98135 -0.05778,-0.18704 -0.425535,-0.39297 -0.654587,-0.49069 -0.229067,-0.0977 -0.261621,-0.2615 -0.261621,-0.52324 0,-0.2615 -0.06618,-4.58002 0.06514,-4.77651 0.131347,-0.19657 0.229067,-0.29515 0.392964,-0.29515 0.1639,0 0.363544,-0.23857 0.425536,-0.42448 0.06934,-0.21117 0.03678,-0.55478 -0.03363,-0.81849 -0.03258,-0.12598 -0.261621,-0.2618 -0.490679,-0.2618 -0.229037,0 -3.435803,0 -3.435803,0" />
    <path
       id="path887"
       style="fill:#ed1427;fill-opacity:1;fill-rule:nonzero;stroke:none;stroke-width:1.05070472"
       d="m 70.268199,126.21239 c -0.555824,0 -0.716582,0.17126 -0.834261,0.24482 -0.133431,0.0831 -0.359341,0.0652 -0.490678,0.0652 -0.130274,0 -3.959056,0 -4.285826,0 -0.327818,0 -0.376151,-0.0149 -0.638826,-0.0149 -0.26162,0 -0.523252,0.15666 -0.523252,0.71972 0,1.5372 0.687161,0.85003 0.981359,1.11272 0.295247,0.2615 0.1639,0.42448 0.1639,0.62096 0,0.19658 0,3.86028 0,4.28583 0,0.42552 -0.196483,0.39296 -0.588396,0.65458 -0.39296,0.26151 -0.270019,0.84268 -0.213281,1.0959 0.07881,0.35302 0.179685,0.44127 0.376151,0.44127 0.196483,0 4.810127,-0.0325 5.07175,0 0.261621,0.0337 0.49173,0.22904 0.753356,0.22904 0.261621,0 0.874186,-0.32783 0.948786,-0.68613 0.359341,-1.74309 0.784876,-1.99631 0.719733,-2.38928 -0.06514,-0.39192 -0.26162,-0.94879 -0.851071,-0.75231 -0.588393,0.19657 -0.950888,0.95615 -1.242983,1.30918 -0.26582,0.32047 -0.329921,0.33411 -0.622016,0.32675 -0.391915,-0.009 -1.504609,0.0652 -1.504609,-0.19657 0,-0.2615 -0.06618,-0.68714 0.06514,-1.01393 0.130274,-0.32675 0.294204,-0.16381 0.425535,-0.0977 0.130274,0.0652 0.20384,0.42657 0.458107,0.49066 0.26162,0.0652 0.687162,0.0652 0.784876,-0.0989 0.1681,-0.28057 0.196484,-0.42448 0.196484,-0.65355 0,-0.22903 0,-2.06148 0,-2.3231 0,-0.2615 0.06514,-0.55687 -0.196484,-0.58945 -0.26162,-0.0325 -0.817448,-0.0652 -0.981357,0 -0.1639,0.0661 -0.26162,0.58105 -0.589447,0.5569 -0.167057,-0.0119 -0.130274,-0.42555 -0.09772,-0.62204 0.03258,-0.19657 -0.03258,-0.32676 0.196483,-0.49068 0.229067,-0.16382 0.490681,-0.13135 0.883645,-0.13135 0.391913,0 0.458107,0.0661 0.687159,0.19657 0.227995,0.13135 0.83321,0.44548 0.948788,0.52324 0.341477,0.23321 0.35829,0.26597 0.605206,0.39297 0.239551,0.1239 0.3751,0.21653 0.605206,-0.0652 0.132389,-0.16291 0.1639,-0.4581 0,-0.88365 -0.1639,-0.42552 -0.318364,-1.08327 -0.45811,-1.43948 -0.295246,-0.75228 -0.753353,-0.81744 -0.753353,-0.81744" />
    <path
       id="path889"
       style="fill:#ed1427;fill-opacity:1;fill-rule:nonzero;stroke:none;stroke-width:1.05070472"
       d="m 84.698577,127.095 c 0,-0.30996 -0.391913,-0.68717 -0.817448,-0.68717 -0.425535,0 -0.65459,0.32783 -0.916217,0.32783 -0.262663,0 -0.392964,0 -0.687159,-0.22904 -0.295246,-0.22903 -1.440518,-0.42552 -2.552164,-0.0325 -1.112694,0.39189 -2.454443,1.56975 -2.814835,3.27082 -0.365647,1.73157 -0.130304,3.17418 0.360392,3.86135 0.844765,1.18205 1.341749,1.40689 1.962714,1.76623 0.595749,0.34463 1.194653,0.40872 1.914386,0.40872 0.71973,0 1.858694,-0.17006 2.257963,-0.4413 0.364595,-0.24691 0.344631,-0.18079 0.458107,-0.14713 0.14183,0.042 0.540063,0.27848 0.866832,0.27848 0.131347,0 0.502238,-0.0736 0.556873,-0.55687 0.02949,-0.25942 -0.06621,-1.9953 -0.06621,-2.22434 0,-0.22904 0.05358,-0.43184 0.311008,-0.47493 0.257421,-0.042 0.317313,-0.0208 0.507491,-0.14714 0.294204,-0.19657 0.294204,-0.2615 0.294204,-0.52324 0,-0.2615 -0.03258,-0.58837 -0.06514,-0.81744 -0.03258,-0.22904 -0.261621,-0.4581 -0.654587,-0.4581 -0.392964,0 -2.977697,0.0325 -3.369609,0.0325 -0.392964,0 -0.785928,0.16381 -0.8185,0.52327 -0.03258,0.36038 -0.11979,1.08011 0.1639,1.29235 0.06514,0.0494 0.241666,0.10722 0.376151,0.11466 0.311011,0.0149 0.114519,0.0149 0.311011,0.0149 0.196484,0 0.32677,0.21325 0.32677,0.4749 0,0.2618 -0.229067,0.49069 -0.523253,0.58945 -0.294204,0.0977 -1.439464,0.39192 -2.257963,-0.65459 -0.818499,-1.04755 -0.65459,-1.37431 -0.65459,-1.79986 0,-0.42552 0.06514,-1.24297 0.719733,-1.83242 0.65459,-0.5884 0.818499,-0.71972 1.341749,-0.71972 0.523253,0 0.883642,0.0989 1.341749,0.36038 0.45811,0.2615 0.811146,0.57578 1.242987,0.81745 0.40452,0.22606 1.254539,0.44655 1.276606,-0.19658 0.01787,-0.52639 -0.1639,-0.81744 -0.261621,-1.17678 -0.09876,-0.36038 -0.131346,-0.81849 -0.131346,-1.01497" />
    <path
       id="path891"
       style="fill:#ed1427;fill-opacity:1;fill-rule:nonzero;stroke:none;stroke-width:1.05070472"
       d="m 86.694913,126.57173 c -0.458107,0 -0.628321,0.0494 -0.71973,0.29426 -0.09876,0.26151 -0.131346,0.68718 0,1.21042 0.0557,0.22278 0.391912,0.29515 0.620964,0.39296 0.229067,0.0989 0.327821,0.29427 0.360393,0.55583 0.03258,0.2615 0.03258,3.8939 0.03258,4.1881 0,0.29426 -0.130274,0.36038 -0.26162,0.39297 -0.131347,0.0325 -0.470718,0.13551 -0.523253,0.42555 -0.06621,0.35934 -0.06621,0.65351 0,0.98134 0.06409,0.32048 0.130304,0.45811 0.425535,0.45811 0.294204,0 2.846359,0 3.173129,0 0.32782,0 0.443396,-0.17662 0.524301,-0.42552 0.08089,-0.25317 0.08089,-0.56426 0.03258,-0.81745 -0.04307,-0.22606 -0.08301,-0.46757 -0.327818,-0.5569 -0.214353,-0.0789 -0.490681,-0.13134 -0.490681,-0.32675 0,-0.19658 -0.06514,-1.1127 0,-1.27662 0.06618,-0.16292 0.196483,-0.32676 0.327821,-0.29427 0.130304,0.0325 1.603376,0 1.733662,0.0325 0.131346,0.0325 0.392963,0.19657 0.392963,0.32783 0,0.13015 0,1.21041 -0.06514,1.34068 -0.06621,0.13135 -0.295246,0.19657 -0.524301,0.2618 -0.229067,0.0661 -0.244822,0.20164 -0.294204,0.4581 -0.04938,0.25436 -0.04938,0.48331 0.03258,0.91621 0.01876,0.10186 0.229066,0.36039 0.556875,0.36039 0.326767,0 2.682447,0 2.977697,0 0.294204,0 0.454952,-0.24155 0.52325,-0.42552 0.06934,-0.18824 0.03258,-0.75231 0,-0.98138 -0.03258,-0.22904 -0.261621,-0.29516 -0.490679,-0.39297 -0.229067,-0.0977 -0.392964,-0.42552 -0.425535,-0.7523 -0.03258,-0.3278 0.09772,-3.99162 0.130274,-4.31838 0.03363,-0.32783 0.257421,-0.40872 0.343582,-0.44235 0.118718,-0.0462 0.296289,-0.16381 0.377203,-0.34358 0.10192,-0.22696 0.02949,-0.70293 0,-0.91621 -0.03363,-0.22904 -0.196484,-0.32679 -0.425536,-0.32679 -0.229067,0 -2.879981,0 -3.141608,0 -0.26162,0 -0.311008,0.1787 -0.392964,0.39297 -0.08089,0.21444 -0.06514,0.58841 -0.03258,0.88261 0.03258,0.29516 0.175456,0.3194 0.360392,0.39294 0.213282,0.0852 0.311008,0.0357 0.408726,0.24601 0.122917,0.26478 0.09876,0.75231 0,1.01396 -0.04623,0.12301 -0.08196,0.17959 -0.311011,0.17959 -0.229037,0 -1.456277,0.0366 -1.684278,0 -0.204882,-0.0325 -0.295246,-0.24482 -0.295246,-0.40872 0,-0.16381 0,-0.50748 0.06514,-0.67034 0.03047,-0.0768 0.261621,-0.2752 0.344631,-0.311 0.08932,-0.039 0.195441,-0.0494 0.294204,-0.11467 0.09772,-0.0652 0.205954,-0.1376 0.26162,-0.36038 0.04834,-0.1933 0.04834,-0.50433 0,-0.71973 -0.04414,-0.19121 -0.131346,-0.52327 -0.360392,-0.52327 -0.229037,0 -3.369609,0 -3.533521,0" />
    <path
       id="path893"
       style="fill:#ed1427;fill-opacity:1;fill-rule:nonzero;stroke:none;stroke-width:1.05070472"
       d="m 98.409221,133.08297 c -0.294204,0.52324 -1.570804,2.38824 -0.719733,2.38824 0.850019,0 3.402182,0.0325 4.417162,-0.0661 1.01393,-0.0977 2.35568,-1.5372 2.38825,-2.35569 0.0326,-0.81745 0.0966,-1.44052 -0.94879,-2.25692 -0.0368,-0.0298 -0.13027,-0.19658 0,-0.26151 0.13135,-0.0652 0.88365,-0.78593 0.88365,-1.66851 0,-0.88365 -0.36039,-1.4069 -1.04755,-1.83245 -0.68717,-0.42552 -1.83243,-0.4581 -2.48597,-0.4581 -0.65459,0 -2.290538,0 -2.81484,0 -0.52325,0 -1.17784,1.4069 -0.162857,1.50462 1.013928,0.0989 0.916214,0.4581 1.145266,0.85107 0.229066,0.39296 0.424487,0.19657 0.588395,-0.13135 0.1639,-0.32676 0.314159,-0.42764 0.687166,-0.42448 0.40137,0.002 0.72918,0.1659 0.71973,0.70293 -0.006,0.39401 -0.32677,0.65459 -0.62097,0.78489 -0.27002,0.11973 -0.458105,-0.0149 -0.68716,-0.27729 -0.229067,-0.2615 -0.719733,-0.22903 -0.818499,0.32679 -0.09772,0.55687 -0.752305,1.93014 -0.09772,2.3231 0.653539,0.39297 0.916213,0.38666 0.916213,0.13016 0,-0.42448 -0.06621,-0.52324 0.458106,-0.52324 0.52325,0 0.91622,0.0661 1.0465,0.32783 0.2238,0.44654 0.26478,0.58206 0.0988,0.9162 -0.19649,0.3919 -0.39297,0.49066 -0.72079,0.49066 -0.32677,0 -0.882589,-0.0661 -0.882589,-0.36038 0,-0.56318 -1.341749,-0.13016 -1.341749,-0.13016" />
    <path
       id="path895"
       style="fill:#ed1427;fill-opacity:1;fill-rule:nonzero;stroke:none;stroke-width:1.05070472"
       d="m 96.38031,126.57173 c -0.294204,0 -0.501186,0.10514 -0.555824,0.32783 -0.06621,0.2615 -0.07461,0.70501 0.03258,0.88258 0.26582,0.44447 1.079072,0.42555 1.079072,0.81852 0,0.27729 0.01578,4.26691 0,4.64516 -0.01043,0.26895 -0.85002,0.39297 -1.013929,0.81849 -0.152344,0.39717 0,0.88261 0.1639,1.14423 0.08616,0.13969 0.359341,0.2627 0.555825,0.2627 0.196483,0 2.945124,0 3.174176,0 0.22907,0 0.55583,-0.0661 0.55583,-0.32783 0,-0.26151 0,-0.78487 0,-0.98135 0,-0.19657 0.0326,-0.13015 -0.19649,-0.22904 -0.229065,-0.0977 -0.424483,-0.39293 -0.424483,-0.65458 0,-0.2615 -0.131346,-4.58 0,-4.77648 0.130274,-0.19658 0,-0.42555 0.162858,-0.42555 0.163905,0 0.425535,-0.22904 0.425535,-0.42448 0,-0.19657 -0.0326,-0.68717 -0.0326,-0.81849 0,-0.13045 -0.26162,-0.2618 -0.490682,-0.2618 -0.229037,0 -3.435803,0 -3.435803,0" />
    <path
       id="path897"
       style="fill:#ed1427;fill-opacity:1;fill-rule:nonzero;stroke:none;stroke-width:1.05070472"
       d="m 125.04353,126.31011 c -0.45811,0 -0.64408,0.18079 -0.73549,0.42555 -0.0988,0.2615 -0.11452,0.55583 0.0158,1.07907 0.0557,0.22278 0.39297,0.29515 0.62202,0.39296 0.22907,0.0977 0.13135,0.42552 0.1639,0.68717 0.0326,0.26151 0.0326,3.89286 0.0326,4.18811 0,0.29426 -0.13134,0.35934 -0.26162,0.39189 -0.13134,0.0325 -0.373,0.11973 -0.42553,0.40872 -0.0662,0.36042 -0.0662,0.58945 0,0.91624 0.0641,0.32152 0.30785,0.40137 0.52325,0.40872 0.2942,0.0119 2.91255,0.0119 3.23932,0 0.22907,-0.006 0.3026,-0.21652 0.36039,-0.4245 0.0651,-0.23738 0.082,-0.63041 0.0326,-0.88363 -0.0441,-0.22487 -0.13135,-0.4581 -0.3604,-0.4581 -0.22903,0 -0.49067,-0.13046 -0.49067,-0.32679 0,-0.19657 0.0326,-0.52428 0.0988,-0.68714 0.0651,-0.16381 0.19544,-0.32783 0.32677,-0.29426 0.13134,0.0325 1.40689,0 1.53823,0.0325 0.13027,0.0325 0.39191,0.19538 0.39191,0.32676 0,0.13134 0.0336,0.58945 -0.0326,0.71972 -0.0651,0.13135 -0.19648,0.19657 -0.42554,0.2615 -0.22906,0.0652 -0.2942,0.22904 -0.2942,0.49069 0,0.2615 0.0326,0.80169 0.0651,0.90045 0.0336,0.0977 0.29524,0.34255 0.62202,0.34255 0.32781,0 2.68349,0 2.97769,0 0.29421,0 0.45916,-0.23947 0.52325,-0.42451 0.0536,-0.15547 0.10296,-0.64723 0,-0.98135 -0.0673,-0.22159 -0.26162,-0.29515 -0.49068,-0.39296 -0.22906,-0.0977 -0.49067,-0.45811 -0.52325,-0.78487 -0.0326,-0.32783 -0.0326,-3.92648 0,-4.25326 0.0326,-0.3278 0.36039,-0.22904 0.42554,-0.29516 0.0651,-0.0652 0.23219,-0.14088 0.2942,-0.32676 0.0693,-0.21027 0.0693,-0.75022 0,-0.99817 -0.0631,-0.22278 -0.19648,-0.44131 -0.42553,-0.44131 -0.22904,0 -2.64988,0 -2.9115,0 -0.26267,0 -0.34253,0.16917 -0.39297,0.39297 -0.0483,0.21444 -0.0651,0.58841 -0.0326,0.88258 0.0326,0.29516 0.18177,0.30368 0.35934,0.39297 0.26162,0.13134 0.26793,0.15964 0.34358,0.34358 0.11663,0.28146 0.082,0.67035 -0.0158,0.932 -0.0462,0.123 -0.1345,0.19031 -0.36039,0.22903 -0.2112,0.0366 -1.60337,0.0337 -1.79985,-0.0325 -0.19649,-0.0652 -0.26163,-0.2615 -0.26163,-0.42552 0,-0.16292 -0.0651,-0.45706 0,-0.62096 0.0651,-0.16381 0.1639,-0.29427 0.26163,-0.29427 0.0988,0 0.19436,-0.0652 0.27844,-0.14802 0.11452,-0.11139 0.12819,-0.18496 0.17966,-0.40872 0.0494,-0.21028 0.0494,-0.63568 -0.0158,-0.85003 -0.0578,-0.18794 -0.1471,-0.39297 -0.37615,-0.39297 -0.22906,0 -2.87998,0 -3.04389,0" />
    <path
       id="path899"
       style="fill:#ed1427;fill-opacity:1;fill-rule:nonzero;stroke:none;stroke-width:1.05070472"
       d="m 152.88931,126.31011 c -0.29421,0 -0.4371,0.0998 -0.55582,0.32679 -0.12504,0.23946 -0.10088,0.72604 0.0326,0.88362 0.1681,0.19866 1.08012,0.2615 1.08012,0.65459 0,0.39297 0.006,4.6767 0,4.94041 -0.0116,0.43291 -0.8185,0.35934 -0.98241,0.78489 -0.15234,0.39717 -0.0326,0.78486 0.13135,1.04651 0.0872,0.1388 0.36039,0.27848 0.55582,0.27848 0.19649,0 2.87998,0 3.10904,0 0.22906,0 0.85107,-0.63776 0.85107,-0.89941 0,-0.2615 -0.22907,-0.22904 -0.22907,-0.42552 0,-0.19657 -0.39506,-0.35726 -0.64408,-0.35514 -0.28157,0.003 -0.26478,-0.12807 -0.27213,-0.28265 -0.0137,-0.2615 -0.01,-4.54113 0,-4.77651 0.007,-0.19746 0.002,-0.55055 0.34358,-0.52324 0.16286,0.0119 0.53901,-0.37721 0.53901,-0.57262 0,-0.19657 -0.0326,-0.68717 -0.0326,-0.81852 0,-0.13015 -0.26162,-0.2615 -0.49068,-0.2615 -0.22904,0 -3.4358,0 -3.4358,0" />
    <path
       id="path901"
       style="fill:#ed1427;fill-opacity:1;fill-rule:nonzero;stroke:none;stroke-width:1.05070472"
       d="m 133.50801,130.65687 c 0,2.54797 2.07304,4.62101 4.621,4.62101 2.54796,0 4.621,-2.07304 4.621,-4.62101 0,-2.54794 -2.07304,-4.61994 -4.621,-4.61994 -2.54796,0 -4.621,2.072 -4.621,4.61994 z m 2.6068,0 c 0,-1.11058 0.9036,-2.01419 2.0142,-2.01419 1.11059,0 2.0142,0.90361 2.0142,2.01419 0,1.11061 -0.90361,2.01526 -2.0142,2.01526 -1.1106,0 -2.0142,-0.90465 -2.0142,-2.01526" />
    <path
       id="path903"
       style="fill:#ed1427;fill-opacity:1;fill-rule:nonzero;stroke:none;stroke-width:1.05070472"
       d="m 143.4792,130.59173 c 0,2.54797 2.07304,4.61997 4.621,4.61997 2.54795,0 4.62099,-2.072 4.62099,-4.61997 0,-2.54794 -2.07304,-4.62101 -4.62099,-4.62101 -2.54796,0 -4.621,2.07307 -4.621,4.62101 z m 2.60679,0 c 0,-1.11057 0.90361,-2.01418 2.01421,-2.01418 1.11059,0 2.0142,0.90361 2.0142,2.01418 0,1.11061 -0.90361,2.01422 -2.0142,2.01422 -1.1106,0 -2.01421,-0.90361 -2.01421,-2.01422" />
    <path
       id="path905"
       style="fill:#ed1427;fill-opacity:1;fill-rule:nonzero;stroke:none;stroke-width:1.05070472"
       d="m 128.9448,118.34051 c 0,2.54797 2.07304,4.61997 4.621,4.61997 2.54901,0 4.62205,-2.072 4.62205,-4.61997 0,-2.54794 -2.07304,-4.62097 -4.62205,-4.62097 -2.54796,0 -4.621,2.07303 -4.621,4.62097 z m 2.6068,0 c 0,-1.11057 0.9036,-2.01418 2.0142,-2.01418 1.11059,0 2.01525,0.90361 2.01525,2.01418 0,1.11061 -0.90466,2.01422 -2.01525,2.01422 -1.1106,0 -2.0142,-0.90361 -2.0142,-2.01422" />
    <path
       id="path907"
       style="fill:#ed1427;fill-opacity:1;fill-rule:nonzero;stroke:none;stroke-width:1.05070472"
       d="m 104.90678,130.78298 c 0,2.54794 2.07304,4.62097 4.621,4.62097 2.54795,0 4.621,-2.07303 4.621,-4.62097 0,-2.54798 -2.07305,-4.61997 -4.621,-4.61997 -2.54796,0 -4.621,2.07199 -4.621,4.61997 z m 2.6068,0 c 0,-1.11061 0.9036,-2.01422 2.0142,-2.01422 1.11059,0 2.0142,0.90361 2.0142,2.01422 0,1.11057 -0.90361,2.01418 -2.0142,2.01418 -1.1106,0 -2.0142,-0.90361 -2.0142,-2.01418" />
    <path
       id="path909"
       style="fill:#000000;fill-opacity:1;fill-rule:nonzero;stroke:none;stroke-width:1.05070472"
       d="m 162.72495,127.09604 c 0,-0.68189 0.55267,-1.18518 1.20621,-1.18518 0.64724,0 1.19991,0.50329 1.19991,1.18518 0,0.68822 -0.55267,1.19046 -1.19991,1.19046 -0.65354,0 -1.20621,-0.50224 -1.20621,-1.19046 z m 1.20621,0.99291 c 0.53691,0 0.9614,-0.42133 0.9614,-0.99291 0,-0.56213 -0.42449,-0.98661 -0.9614,-0.98661 -0.54321,0 -0.9677,0.42448 -0.9677,0.98661 0,0.57158 0.42449,0.99291 0.9677,0.99291 z m -0.2511,-0.30469 h -0.20804 v -1.37011 h 0.52219 c 0.32362,0 0.48333,0.11973 0.48333,0.38981 0,0.24482 -0.15342,0.35198 -0.35514,0.37718 l 0.38981,0.60312 h -0.23219 l -0.36144,-0.59365 h -0.23851 z m 0.24795,-0.77018 c 0.17545,0 0.33307,-0.0119 0.33307,-0.22278 0,-0.17007 -0.15342,-0.20164 -0.2984,-0.20164 h -0.28265 v 0.42448 h 0.24795" />
    <path
       id="path911"
       style="fill:#ed1427;fill-opacity:1;fill-rule:nonzero;stroke:none;stroke-width:1.05070472"
       d="m 94.444911,101.36324 c 0.09456,0.14713 0.08616,0.55687 0.07041,0.67138 -0.03258,0.22904 0.03258,0.22904 -0.622016,0.39193 -0.65459,0.16381 -0.719733,0.65459 -0.719733,0.65459 0,0 0.06514,4.71137 0.06514,5.03813 0,0.32783 0.295246,0.42555 0.65459,0.42555 0.360393,0 0.377202,0.17125 0.425536,0.3278 0.100877,0.32887 0.06409,0.54111 0.03258,0.76806 -0.04622,0.33099 -0.06514,0.44235 -0.392964,0.44235 -0.326769,0 -3.434752,0 -3.762573,0 -0.326769,0 -0.392963,-0.2615 -0.425535,-0.45811 -0.03258,-0.19657 -0.03258,-0.58945 0.06621,-0.88365 0.09772,-0.29426 0.948786,-0.36038 1.013932,-0.49066 0.06514,-0.13134 0.09772,-2.3231 0.06514,-2.6173 -0.03258,-0.29427 -0.359341,-0.0989 -0.359341,-0.0989 0,0 -3.141609,4.09038 -3.305517,4.28687 -0.162858,0.19538 -0.294204,0 -0.294204,0 0,0 -3.433704,-3.78042 -3.713192,-4.08934 -0.311008,-0.34359 -0.692412,-0.2344 -0.785924,0.16381 -0.09036,0.38981 -0.02115,0.0524 -0.196484,0.75127 -0.143945,0.57369 -1.022336,3.94643 -2.470205,5.75785 -1.394285,1.74521 -3.562941,3.88657 -6.904181,5.00662 -3.47258,1.16416 -7.33497,1.27135 -10.013214,0.94772 -4.396148,-0.52956 -5.692718,-1.86396 -6.150825,-2.2569 -0.458107,-0.39296 -1.47309,-1.43947 -1.47309,-2.55217 0,-1.11164 0.311011,-1.32493 0.638829,-1.55399 0.326769,-0.22904 1.619137,-0.311 1.913335,0.67141 0.295247,0.98135 -0.195441,1.04648 -0.179655,1.24297 0.08196,0.97822 0.311007,1.56975 1.488848,2.35568 1.17784,0.78487 4.122965,1.35752 5.693766,1.35752 1.570804,0 5.333377,-0.27729 9.259861,-2.10982 3.926482,-1.83242 5.720036,-5.95118 6.151876,-7.59135 0.378254,-1.43736 0.588393,-4.51489 0.52325,-4.84164 -0.06514,-0.32676 -0.144987,-0.2615 -0.752304,-0.58838 -0.425536,-0.22904 -0.361441,-0.78385 -0.361441,-0.78385 l -0.01579,-0.0149 c 0,-0.52536 0.196484,-0.47598 0.689262,-0.47598 v -0.003 h 3.18889 l 3.762573,4.77651 3.599715,-4.77651 c 0,0 3.156315,0 3.303414,0 0.01668,0 0.197526,-0.0325 0.291047,0.14713" />
  </g>
</svg>
